<svg height="40" viewBox="0 0 170 40" width="170" xmlns="http://www.w3.org/2000/svg"><g fill="#fff" transform="translate(1)"><path d="m54.8555859 9.10569106c-2.0418359-4.32195122-4.8142968-7.53170732-7.828125-9.04065041l-.1304687-.06504065h-.4207617l-.1435157.07479675c-2.9975195 1.50894309-5.7732421 4.71869918-7.828125 9.0406504-.2641992.55609757-.5088281 1.12520325-.7371484 1.69430895-.2283203-.5723577-.4740365-1.13712737-.7371484-1.69430895-2.0385743-4.32195122-4.8142969-7.53170731-7.828125-9.0406504l-.1108985-.07479675h-.4207617l-.1435156.07479675c-3.0007813 1.50894309-5.7732422 4.71869918-7.828125 9.0406504-.2511524.53333334-.4859961 1.07967485-.707793 1.62601625-.2174479-.5571816-.4533789-1.09918698-.707793-1.62601625-2.028789-4.32195122-4.80125-7.53170731-7.7987695-9.0406504l-.1467773-.07479675h-.4207617l-.1533008.07479675c-2.99751956 1.50894309-5.77324221 4.71869918-7.82812503 9.0406504-1.85591796 3.98699185-2.93554687 8.54959355-2.93554687 12.51382115 0 3.7365854.77628906 6.2178862 2.51804687 8.0195122 1.63085938 1.6715447 3.9140625 2.6341463 6.81373047 3.8471545l1.10572266.4682926v5.8894309h1.3633984v-5.8894309l1.1318164-.4682926c3.0301368-1.2682927 5.4503321-2.2764228 7.0714063-4.1398374 1.6210742 1.8634146 4.0412695 2.8682926 7.0681445 4.1398374l1.1122461.4682926v5.8894309h1.3633985v-5.8894309l1.1318164-.4682926c3.0464453-1.2747968 5.4829492-2.295935 7.1040234-4.1723578 1.6308594 1.8764228 4.0575781 2.897561 7.1072852 4.1723578l1.1155078.4682926v5.8894309h1.3633984v-5.8894309l1.1122461-.4682926c2.9061914-1.2130082 5.1991797-2.1756098 6.8169922-3.8471545 1.7384961-1.801626 2.5147851-4.2764228 2.5147851-8.0195122 0-3.9642276-1.0796289-8.5268293-2.9583789-12.51382115zm-36.0876562 19.59349594c-1.4188477 1.4731707-3.5878906 2.3869919-6.3733984 3.5447154l-.8741407.3674797v-8.0747967l3.6139844-3.6357724v-1.9512195c.7643565-.2490325 1.223242-1.0264261 1.0705332-1.8135801-.1527089-.7871541-.8692484-1.3378662-1.671614-1.2847553-.8023655.0531109-1.4395967.693433-1.4865956 1.4938063-.0469989.8003732.5109346 1.5104606 1.3016022 1.6565616v1.4861789l-2.8279102 2.9268292v-8.6471544c.7813497-.1976473 1.2927752-.9445008 1.1928873-1.7420173-.0998878-.7975166-.7798197-1.3960392-1.5859244-1.3960392s-1.4860366.5985226-1.58592442 1.3960392c-.09988782.7975165.41153766 1.54437 1.19288732 1.7420173v13.8504065l-3.13124999-2.4910569v-4.6081301c.77949951-.1976085 1.28947089-.9429612 1.18959941-1.7386684-.09987148-.7957073-.7783346-1.3927808-1.58263652-1.3927808-.80430193 0-1.48276505.5970735-1.58263653 1.3927808-.09987148.7957072.4100999 1.5410599 1.18959942 1.7386684v5.0406504l3.91406251 3.0373984v2.998374l-.83826173-.3544716h-.03587891c-2.7659375-1.1544715-4.96433593-2.0682927-6.366875-3.5414634-1.47103515-1.5252033-2.12664062-3.7073171-2.12664062-7.0699187 0-7.2422764 3.9140625-17.03739838 9.76232426-20.20487806 3.2943359 1.78861789 6.3309961 5.98699187 8.1542968 11.28455286-.9742636 2.8754837-1.4904435 5.8854559-1.5297461 8.9203252 0 2.8585366.4533789 4.9593496 1.4253711 6.5918699-.127207.1626016-.2576757.3252033-.4077148.4780488zm-4.1293359-10.4487805c-.4467466 0-.8089063-.3610842-.8089063-.8065041s.3621597-.806504.8089063-.806504c.4467465 0 .8089062.3610841.8089062.806504s-.3621597.8065041-.8089062.8065041zm-7.46281255 2.5430894c-.44674659 0-.80890625-.3610841-.80890625-.806504s.36215966-.8065041.80890625-.8065041.80890625.3610842.80890625.8065041-.36215966.806504-.80890625.806504zm12.82833985 6.0682927c-.603418-1.3268293-.8871875-3.0113821-.8871875-5.2325203.0225932-2.2039112.3206197-4.3964216.8871875-6.5268293.5651094 2.1306975.8631111 4.3230257.8871875 6.5268293 0 2.2243902-.2837695 3.905691-.8871875 5.2325203zm16.5271289 1.8373984c-1.4155859 1.4731707-3.5878906 2.3869919-6.3701367 3.5447154l-.0848047.0357724-.7893359.3252032v-8.0682926l3.6139843-3.6357724v-1.9512195c.7638575-.2495274 1.2221222-1.0267877 1.0692742-1.81359s-.8690416-1.3372597-1.6711024-1.2843884-1.4393335.6925484-1.4869554 1.4925655c-.0476218.8000171.5092897 1.5103577 1.2994477 1.6574454v1.4861789l-2.8246484 2.9268292v-8.6471544c.7813496-.1976473 1.2927751-.9445008 1.1928873-1.7420173-.0998878-.7975166-.7798198-1.3960392-1.5859245-1.3960392s-1.4860366.5985226-1.5859244 1.3960392c-.0998878.7975165.4115377 1.54437 1.1928873 1.7420173v13.8504065l-3.13125-2.4910569v-4.6081301c.7813497-.1976473 1.2927752-.9445007 1.1928874-1.7420173-.0998879-.7975166-.7798198-1.3960392-1.5859245-1.3960392s-1.4860366.5985226-1.5859244 1.3960392.4115377 1.54437 1.1928873 1.7420173v5.0406504l3.9140625 3.0373984v2.998374l-.8382617-.3544716h-.0391406c-2.7659375-1.1577236-4.9512891-2.0715447-6.3701367-3.5447154-.1460161-.1523378-.2842695-.3118882-.4142383-.4780488.9785156-1.6260163 1.4286328-3.7333334 1.4286328-6.5918699-.0409613-3.034718-.5570975-6.0444347-1.5297461-8.9203252 1.8265625-5.29756102 4.8632226-9.49918703 8.1542969-11.28455289 3.3139062 1.79837399 6.3636132 6.02926829 8.186914 11.36585369-.9652068 2.8506756-1.4791093 5.8338688-1.5232226 8.8422764 0 2.8357724.4501172 4.9235772 1.402539 6.5495935-.1306151.1818637-.2722184.3556271-.4240234.5203252zm-4.1391211-10.4487805c-.4467466 0-.8089062-.3610842-.8089062-.8065041s.3621596-.806504.8089062-.806504.8089063.3610841.8089063.806504-.3621597.8065041-.8089063.8065041zm-7.4595508 2.5430894c-.4467466 0-.8089062-.3610841-.8089062-.806504s.3621596-.8065041.8089062-.8065041.8089063.3610842.8089063.8065041-.3621597.806504-.8089063.806504zm12.8511719 6.0097561c-.5838477-1.300813-.8610937-2.9821138-.8610937-5.1739837.0232602-2.166851.3124416-4.3227177.8610937-6.4195122.5484594 2.0968323.8376376 4.2526752.8610938 6.4195122 0 2.1918699-.2739844 3.8536585-.8610938 5.1739837zm16.5434375 1.895935c-1.4188477 1.4731707-3.6041992 2.3869919-6.3733984 3.5447154h-.0358789l-.8382618.3544716v-8.0585366l3.6139844-3.6390244v-1.9512195c.7643565-.2490325 1.223242-1.0264261 1.0705332-1.8135801-.1527089-.7871541-.8692484-1.3378662-1.671614-1.2847553-.8023655.0531109-1.4395967.693433-1.4865956 1.4938063-.0469989.8003732.5109346 1.5104606 1.3016022 1.6565616v1.4861789l-2.8279102 2.9268292v-8.6471544c.7794996-.1976085 1.2894709-.9429612 1.1895995-1.7386685-.0998715-.7957072-.7783346-1.3927807-1.5826366-1.3927807-.8043019 0-1.482765.5970735-1.5826365 1.3927807-.0998715.7957073.4100999 1.54106 1.1895994 1.7386685v13.8504065l-3.13125-2.4910569v-4.6081301c.7794995-.1976085 1.2894709-.9429612 1.1895994-1.7386684-.0998714-.7957073-.7783346-1.3927808-1.5826365-1.3927808s-1.482765.5970735-1.5826365 1.3927808c-.0998715.7957072.4100999 1.5410599 1.1895994 1.7386684v5.0406504l3.9140625 3.0373984v2.998374l-.8741406-.3674797c-2.7691992-1.1577236-4.9545508-2.0715447-6.3701367-3.5447155-.1583798-.1642502-.3065217-.3380172-.4435938-.5203252.9556836-1.6260162 1.4025391-3.7138211 1.4025391-6.5495935-.0396186-3.0061524-.5468711-5.98797-1.5036524-8.8390244 1.8233008-5.32032516 4.8795313-9.55121947 8.1869141-11.34959346 5.845 3.16747968 9.7623242 12.96260166 9.7623242 20.20487806 0 3.3626016-.6556055 5.5447154-2.1233789 7.0699187zm-4.1293359-10.4487805c-.4467466 0-.8089063-.3610842-.8089063-.8065041s.3621597-.806504.8089063-.806504c.4467465 0 .8089062.3610841.8089062.806504s-.3621597.8065041-.8089062.8065041zm-7.469336 2.5430894c-.4467466 0-.8089062-.3610841-.8089062-.806504s.3621596-.8065041.8089062-.8065041.8089063.3610842.8089063.8065041-.3621597.806504-.8089063.806504z"/><path d="m72.0578906 7.56747967h-11.0800586v1.85040651h4.6316407v12.13983742h1.8559179v-12.13983742h4.5925z"/><path d="m83.7413672 20.3577236c-.9034961-2.897561-1.6080274-4.3512195-2.3941016-5.2910569 1.4329017-.596377 2.3824339-1.9744544 2.4267188-3.5219513 0-2.1951219-1.9798633-3.97723573-4.4163672-3.97723573l-5.3492188.01626017c-.246479-.00263795-.4836346.09381991-.6579317.26759937-.174297.17377946-.2710422.41023075-.2683964.65597786v6.00650403l-.0358789.8585366h.0163086v6.1788618h1.855918v-6.0650406h4.1521679c.9785157.6959349 1.7058789 1.5739837 2.8800977 5.4178861l.2772461.6504065h1.8820117zm-4.3641797-6.7219512h-3.0823242.0163086-1.3927539v-4.20487809h4.4424609c1.4090625 0 2.5571875.95284549 2.5571875 2.12682929 0 1.1739837-1.1383398 2.0780488-2.5408789 2.0780488z"/><path d="m86.4355469 21.5577236 9.4263672.0000527v-1.8504592h-8.4804688v-4.2276423h6.2168359v-1.8439024h-6.2233593v-4.20487809h8.4804687v-1.86341464h-9.4198437c-.2464791-.00263794-.4836347.09381992-.6579317.26759938-.1742971.17377945-.2710423.41023075-.2683965.65597786v12.14308939c-.0026458.2457472.0940994.4821984.2683965.6559779.174297.1737795.4114526.2702373.6579317.2675994z"/><path d="m98.53 21.5577236 9.432891.0000527v-1.8504592h-8.4804691v-4.2276423h6.1972651v-1.8439024h-6.2200972v-4.20487809h8.4804692v-1.86341464h-9.410059c-.2464791-.00263794-.4836346.09381992-.6579317.26759938-.1742971.17377945-.2710422.41023075-.2683964.65597786v12.14308939c-.0026458.2457472.0940993.4821984.2683964.6559779s.4114526.2702373.6579317.2675994z"/><path d="m120.73252 18.702439.453378-.8455284h-1.278593l-.172871.2861788c-.675176 1.2227643-2.495215 2.5203252-4.543575 2.5203252-2.935546 0-5.329648-2.7382113-5.329648-6.100813 0-3.3626016 2.39084-6.10731705 5.329648-6.10731705 2.009219 0 3.861875 1.30081301 4.514219 2.55609755l.166348.2764228h1.223144l-.388144-.8292683c-.773028-1.51544717-2.964903-3.1284553-5.512305-3.1284553-3.565058 0-6.461465 3.2520325-6.461465 7.2325203s2.893145 7.2260163 6.458203 7.2260163c2.249185-.0379486 4.329785-1.1966449 5.541661-3.0861789z"/><path d="m124.349766 15.1252033h8.591367v6.6666666h1.131816v-14.4617886h-1.131816v6.6666667h-8.591367v-6.6666667h-1.135079v14.4617886h1.135079z"/><path d="m142.537109 7.34634146c-.22152-.00398677-.424158.12388425-.515351.32520326l-5.871094 13.33333328-.326172.7869919h1.262285l.117422-.3512195 5.33291-12.13983739 5.355743 12.13983739.117421.3512195h1.259024l-6.226621-14.12032518c-.089759-.19805797-.287581-.32530637-.505567-.32520326z"/><path d="m151.196973 7.3300813h1.131816v14.4617886h-1.131816z"/><path d="m165.868184 7.3300813-.019571 12.1593496-8.682695-11.92520326c-.142971-.19531163-.397178-.27451538-.62625-.19512195-.234044.06977769-.395312.28328458-.39793.52682927v13.89268294h1.131817v-12.14959351l8.682695 11.92195121c.146284.1910856.397213.2699237.626947.1969773.229733-.0729463.388722-.2819436.397233-.5221805l.01957-13.33333338v-.57235772z"/><path d="m79.9545117 35.5219512-4.0314844-5.5284553c-.0866218-.1183855-.2285546-.1836037-.3750976-.1723577l-.2054883-.2796748v.3479675c-.1253346.0759501-.201958.211491-.2022266.3577236v7.0406504h.8578321v-5.7235773l4.0314843 5.5284553c.0858755.1196134.2279375.1861227.3750977.1756098l.2022266.2764227v-.3447154c.123616-.0771862.198766-.2123002.1989648-.3577236v-7.0439024h-.8643555z"/><path d="m87.2020508 30.2439024v6.6113822c-.0008771.1141148.0442022.2238097.1251364.3045035.0809341.0806937.1909557.1256392.3054105.1247647h5.0524023v-.8617886h-4.6185938v-2.4455284h3.3856641v-.8617886h-3.3856641v-2.4487805h4.6218555v-.8618027l-5.055664.000014c-.1161851-.0009384-.2277435.0453377-.3089732.1281669-.0812297.0828291-.1251253.1950678-.1215737.3108575z"/><path d="m97.8548242 30.6666667h2.5213088v6.6113821h.864355v-6.6113821h2.501739v-.8585366h-5.8874028z"/><path d="m115.213691 35.3300813-1.957031-5.2390244c-.054074-.1399289-.177953-.2412079-.326172-.2666667l-.075019-.2308943-.091328.2439025c-.147745.0242289-.271721.1243509-.326172.2634146l-1.957031 5.2390244-1.141602-5.203252-.081543-.3252033h-.851309l.065235.3869919 1.471035 6.7479675c.025979.1517848.133875.276873.280508.3252032l.091328.4162602.150039-.4032521c.14072-.0302954.255572-.1312624.30334-.2666666l2.071191-5.5284553 2.064668 5.5284553c.046069.1396589.162612.2447304.306602.2764227l.150039.4065041.091328-.4162602c.146633-.0483302.254529-.1734183.280508-.3252032l1.451465-6.6276423.084804-.5073171h-.825215z"/><path d="m125.719688 29.804878c-1.842872 0-3.343262 1.6780488-3.343262 3.7365854s1.50039 3.7365854 3.343262 3.7365854c1.842871 0 3.346523-1.6747968 3.346523-3.7365854s-1.500391-3.7365854-3.346523-3.7365854zm0 .8617887c1.369921 0 2.482167 1.300813 2.482167 2.8747967 0 1.5739838-1.112246 2.8780488-2.482167 2.8780488-1.369922 0-2.482168-1.300813-2.482168-2.8780488s1.115507-2.8747967 2.482168-2.8747967z"/><path d="m139.353672 33.7918699c.800166-.2944651 1.341772-1.0427472 1.369922-1.8926829 0-1.1544716-1.04375-2.094309-2.332129-2.094309h-2.912715c-.118422-.0045677-.233428.0401071-.317537.1233494-.084109.0832422-.129764.1975738-.126057.315675v3.2747968.3869919 3.3691056h.864356v-3.300813h2.358222c.554493.3902439.958946.8585366 1.614551 3.0016261l.127207.302439h.880664l-.172871-.5560976c-.51209-1.6487805-.903496-2.4292683-1.353613-2.9300813zm-2.361485-.6731707h-1.073105v-2.4520325h2.491953c.808906 0 1.467774.5528455 1.467774 1.2325203s-.652344 1.2130081-1.457989 1.2130081h-1.435156z"/><path d="m152.834355 29.8081301h-1.265546l-3.457422 3.304065h-.551231v-3.304065h-.864355v7.4699187h.864355v-3.3040651h.551231l3.330215 3.1739838.127207.1300813h1.265546l-3.930371-3.7365854 3.141036-2.9951219z"/></g></svg>